<?xml version="1.0" encoding="utf-8"?>
<!-- Generator: Adobe Illustrator 19.1.0, SVG Export Plug-In . SVG Version: 6.00 Build 0)  -->
<svg version="1.1" xmlns="http://www.w3.org/2000/svg" xmlns:xlink="http://www.w3.org/1999/xlink" x="0px" y="0px"
	 viewBox="0 0 960 560" style="enable-background:new 0 0 960 560;" xml:space="preserve">
<style type="text/css">
	.st0{fill:none;}
	.st1{fill:#00A0C6;}
	.st2{font-family:'ATSolidAntiqueRoman';}
	.st3{font-size:47.808px;}
	.st4{letter-spacing:2;}
	.st5{font-family:'ApolloMT-SemiBoldOsF';}
	.st6{font-size:18px;}
	.st7{fill:#E4BC96;}
	.st8{fill:#FFFFFF;}
	.st9{font-family:'BodoniBE-Regular';}
	.st10{font-size:28.8px;}
	.st11{font-size:19.8px;}
</style>
<g id="Logo">
	<g>
		<rect x="62.5" y="74.5" class="st0" width="195" height="70.1"/>
		<text transform="matrix(1 0 0 1 62.4885 107.3072)"><tspan x="0" y="0" class="st1 st2 st3 st4"> tl designs</tspan><tspan x="0" y="36" class="st1 st5 st6">  </tspan><tspan x="8.8" y="36" class="st1 st5 st6">Design + Devel</tspan><tspan x="126.9" y="36" class="st1 st5 st6">o</tspan><tspan x="136.4" y="36" class="st1 st5 st6">pment</tspan></text>
		<path class="st1" d="M83.1,109.6"/>
		<line class="st1" x1="76.8" y1="114.1" x2="247.7" y2="114.1"/>
	</g>
</g>
<g id="NAV">
	<polygon class="st7" points="847.2,181.6 792.6,160.6 737.9,181.6 737.9,0 847.2,0 	"/>
</g>
<g id="Welcome_Circle">
	<circle class="st1" cx="431.3" cy="341.4" r="161.8"/>
</g>
<g id="Welcome_Text">
	<rect x="334.8" y="232" class="st0" width="189.6" height="54.8"/>
	<text transform="matrix(1 0 0 1 368.8629 267.9367)" class="st8 st9 st10">Welcome! </text>
	<rect x="298.6" y="289.4" class="st0" width="267.9" height="104.5"/>
	<text transform="matrix(1 0 0 1 335.4564 355.0409)"><tspan x="0" y="0" class="st8 st9 st11">I’m Lily. A designer and </tspan><tspan x="21.5" y="23.8" class="st8 st9 st11">developer based in </tspan><tspan x="51" y="47.5" class="st8 st9 st11">Chicago, IL.</tspan></text>
</g>
</svg>
